<?xml version="1.0" encoding="utf-8"?>
<!-- Generator: Adobe Illustrator 14.0.0, SVG Export Plug-In . SVG Version: 6.00 Build 43363)  -->
<!DOCTYPE svg PUBLIC "-//W3C//DTD SVG 1.1//EN" "http://www.w3.org/Graphics/SVG/1.1/DTD/svg11.dtd">
<svg version="1.1" id="Layer_1" xmlns="http://www.w3.org/2000/svg" xmlns:xlink="http://www.w3.org/1999/xlink" x="0px" y="0px"
	 width="421px" height="420.98px" viewBox="0 0 421 420.98" enable-background="new 0 0 421 420.98" xml:space="preserve">
<g opacity="0.04">
	<path d="M397.72,41.98L379,23.26C364,8.26,344.061,0,322.841,0c-21.221,0-41.159,8.26-56.181,23.26L201.14,88.78l18.721,18.72
		l65.52-65.52c20.021-20,54.881-20,74.9,0L379,60.7c10,10,15.521,23.3,15.521,37.44c0,14.14-5.5,27.44-15.521,37.44l-102.96,102.98
		c-20.021,20-54.88,20-74.898,0L182.42,219.84l-18.72,18.721l18.72,18.719c15,15,34.939,23.281,56.16,23.281
		c21.22,0,41.16-8.26,56.181-23.26L397.72,154.32c15-15,23.28-34.96,23.28-56.16C421,76.96,412.72,56.98,397.72,41.98z"/>
	<path d="M135.599,378.98c-20.02,20.02-54.859,20.02-74.879,0L42,360.26c-10-10-15.52-23.303-15.52-37.438
		c0-14.14,5.5-27.438,15.52-37.462L144.96,182.4c20.66-20.64,54.262-20.64,74.899,0l18.721,18.721L257.3,182.4l-18.72-18.72
		c-30.979-30.96-81.36-30.98-112.34,0L23.279,266.641C8.279,281.641,0,301.6,0,322.82c0,21.219,8.26,41.16,23.279,56.16L42,397.699
		c15,15,34.939,23.281,56.16,23.281c21.22,0,41.16-8.261,56.16-23.281l65.542-65.521l-18.722-18.719L135.599,378.98z"/>
</g>
</svg>
