<?xml version="1.0" encoding="utf-8"?>
<!-- Generator: Adobe Illustrator 14.0.0, SVG Export Plug-In . SVG Version: 6.00 Build 43363)  -->
<!DOCTYPE svg PUBLIC "-//W3C//DTD SVG 1.1//EN" "http://www.w3.org/Graphics/SVG/1.1/DTD/svg11.dtd">
<svg version="1.1" id="Layer_1" xmlns="http://www.w3.org/2000/svg" xmlns:xlink="http://www.w3.org/1999/xlink" x="0px" y="0px"
	 width="421px" height="420.98px" viewBox="25.8 -4.48 421 420.98" enable-background="new 25.8 -4.48 421 420.98"
	 xml:space="preserve">
<g opacity="0.6">
	<path fill="#54A7E0" d="M423.52,37.5L404.8,18.78c-15-15-34.94-23.26-56.16-23.26s-41.16,8.26-56.18,23.26L226.94,84.3l18.72,18.72
		l65.52-65.52c20.021-20,54.88-20,74.9,0l18.72,18.72c10,10,15.52,23.3,15.52,37.44c0,14.14-5.5,27.44-15.52,37.44L301.84,234.08
		c-20.021,20-54.88,20-74.899,0l-18.721-18.721L189.5,234.08l18.72,18.72c15,15,34.94,23.28,56.16,23.28s41.16-8.26,56.18-23.26
		l102.96-102.98c15-15,23.28-34.96,23.28-56.16C446.8,72.48,438.52,52.5,423.52,37.5z"/>
	<path fill="#54A7E0" d="M161.399,374.5c-20.02,20.02-54.859,20.02-74.879,0L67.8,355.78c-10-10-15.52-23.302-15.52-37.44
		s5.5-27.438,15.52-37.46l102.96-102.96c20.66-20.64,54.261-20.64,74.9,0l18.72,18.721l18.72-18.721l-18.72-18.72
		c-30.98-30.96-81.36-30.98-112.34,0L49.079,262.16c-15,15-23.279,34.96-23.279,56.18s8.26,41.16,23.279,56.16L67.8,393.22
		c15,15,34.939,23.28,56.16,23.28c21.22,0,41.16-8.26,56.16-23.28l65.541-65.52l-18.721-18.72L161.399,374.5z"/>
</g>
</svg>
